<svg width="38" height="38" viewBox="0 0 38 38" fill="none" xmlns="http://www.w3.org/2000/svg">
<rect x="0.5" y="0.5" width="37" height="37" rx="18.5" stroke="#F8F8F8"/>
<path d="M11.2929 24.2929C10.9024 24.6834 10.9024 25.3166 11.2929 25.7071C11.6834 26.0976 12.3166 26.0976 12.7071 25.7071L12 25L11.2929 24.2929ZM27 11C27 10.4477 26.5523 10 26 10L17 10C16.4477 10 16 10.4477 16 11C16 11.5523 16.4477 12 17 12L25 12V20C25 20.5523 25.4477 21 26 21C26.5523 21 27 20.5523 27 20L27 11ZM12 25L12.7071 25.7071L26.7071 11.7071L26 11L25.2929 10.2929L11.2929 24.2929L12 25Z" fill="#F8F8F8"/>
</svg>
