<svg width="48" height="48" viewBox="0 0 48 48" fill="none" xmlns="http://www.w3.org/2000/svg">
<path d="M23.9999 2.87988C12.347 2.87988 2.87988 12.347 2.87988 23.9999C2.87988 34.5783 10.6823 43.3327 20.8443 44.8593L21.9468 45.0261V28.3836H16.9574V25.0049H21.9468V20.518C21.9468 17.755 22.6098 15.9353 23.7074 14.7936C24.805 13.6519 26.4268 13.0761 28.6836 13.0761C30.4882 13.0761 31.1903 13.1855 31.858 13.2674V16.033H29.5086C28.1756 16.033 27.0819 16.7768 26.5143 17.7674C25.9466 18.758 25.7699 19.9408 25.7699 21.1461V25.003H31.648L31.1249 28.3818H25.7699V45.0524L26.8593 44.9043C37.1656 43.5065 45.1199 34.6817 45.1199 23.9999C45.1199 12.347 35.6528 2.87988 23.9999 2.87988ZM23.9999 4.79988C34.6151 4.79988 43.1999 13.3846 43.1999 23.9999C43.1999 33.3405 36.5142 41.0224 27.6899 42.7518V30.3018H32.7711L33.8868 23.083H27.6899V21.1461C27.6899 20.1502 27.8721 19.2578 28.1793 18.7218C28.4864 18.1858 28.7825 17.953 29.5086 17.953H33.778V11.5293L32.9455 11.4168C32.3697 11.3388 31.0551 11.1561 28.6836 11.1561C26.0887 11.1561 23.8612 11.863 22.3236 13.4624C20.786 15.0617 20.0268 17.4432 20.0268 20.518V23.0849H15.0374V30.3036H20.0268V42.6918C11.3442 40.8525 4.79988 33.2394 4.79988 23.9999C4.79988 13.3846 13.3846 4.79988 23.9999 4.79988Z" fill="#0A2BD7"/>
</svg>
