<svg width="48" height="48" viewBox="0 0 48 48" fill="none" xmlns="http://www.w3.org/2000/svg">
<path d="M15.3599 2.87988C8.47907 2.87988 2.87988 8.47907 2.87988 15.3599V32.6399C2.87988 39.5207 8.47907 45.1199 15.3599 45.1199H32.6399C39.5207 45.1199 45.1199 39.5207 45.1199 32.6399V15.3599C45.1199 8.47907 39.5207 2.87988 32.6399 2.87988H15.3599ZM15.3599 4.79988H32.6399C38.4829 4.79988 43.1999 9.51686 43.1999 15.3599V32.6399C43.1999 38.4829 38.4829 43.1999 32.6399 43.1999H15.3599C9.51686 43.1999 4.79988 38.4829 4.79988 32.6399V15.3599C4.79988 9.51686 9.51686 4.79988 15.3599 4.79988ZM35.5199 10.5599C35.0107 10.5599 34.5223 10.7622 34.1622 11.1222C33.8022 11.4823 33.5999 11.9707 33.5999 12.4799C33.5999 12.9891 33.8022 13.4775 34.1622 13.8375C34.5223 14.1976 35.0107 14.3999 35.5199 14.3999C36.0291 14.3999 36.5175 14.1976 36.8775 13.8375C37.2376 13.4775 37.4399 12.9891 37.4399 12.4799C37.4399 11.9707 37.2376 11.4823 36.8775 11.1222C36.5175 10.7622 36.0291 10.5599 35.5199 10.5599ZM23.9999 13.4399C18.1791 13.4399 13.4399 18.1791 13.4399 23.9999C13.4399 29.8206 18.1791 34.5599 23.9999 34.5599C29.8206 34.5599 34.5599 29.8206 34.5599 23.9999C34.5599 18.1791 29.8206 13.4399 23.9999 13.4399ZM23.9999 15.3599C28.783 15.3599 32.6399 19.2168 32.6399 23.9999C32.6399 28.783 28.783 32.6399 23.9999 32.6399C19.2168 32.6399 15.3599 28.783 15.3599 23.9999C15.3599 19.2168 19.2168 15.3599 23.9999 15.3599Z" fill="#0029FF"/>
</svg>
