<svg width="100" height="100" viewBox="0 0 100 100" fill="none" xmlns="http://www.w3.org/2000/svg">
<path d="M93.75 87.5C93.75 87.5 100 87.5 100 81.25C100 75 93.75 56.25 68.75 56.25C43.75 56.25 37.5 75 37.5 81.25C37.5 87.5 43.75 87.5 43.75 87.5H93.75ZM43.8875 81.25C43.8413 81.2436 43.7955 81.2353 43.75 81.225C43.7562 79.575 44.7938 74.7875 48.5 70.475C51.95 66.4313 58.0125 62.5 68.75 62.5C79.4812 62.5 85.5437 66.4375 89 70.475C92.7062 74.7875 93.7375 79.5813 93.75 81.225L93.7 81.2375C93.6709 81.2424 93.6418 81.2466 93.6125 81.25H43.8875ZM68.75 43.75C72.0652 43.75 75.2446 42.433 77.5888 40.0888C79.933 37.7446 81.25 34.5652 81.25 31.25C81.25 27.9348 79.933 24.7554 77.5888 22.4112C75.2446 20.067 72.0652 18.75 68.75 18.75C65.4348 18.75 62.2554 20.067 59.9112 22.4112C57.567 24.7554 56.25 27.9348 56.25 31.25C56.25 34.5652 57.567 37.7446 59.9112 40.0888C62.2554 42.433 65.4348 43.75 68.75 43.75ZM87.5 31.25C87.5 33.7123 87.015 36.1505 86.0727 38.4253C85.1305 40.7002 83.7494 42.7672 82.0083 44.5083C80.2672 46.2494 78.2002 47.6305 75.9253 48.5727C73.6505 49.515 71.2123 50 68.75 50C66.2877 50 63.8495 49.515 61.5747 48.5727C59.2998 47.6305 57.2328 46.2494 55.4917 44.5083C53.7506 42.7672 52.3695 40.7002 51.4273 38.4253C50.485 36.1505 50 33.7123 50 31.25C50 26.2772 51.9754 21.5081 55.4917 17.9917C59.0081 14.4754 63.7772 12.5 68.75 12.5C73.7228 12.5 78.492 14.4754 82.0083 17.9917C85.5246 21.5081 87.5 26.2772 87.5 31.25ZM43.35 58C40.8499 57.2127 38.2727 56.6952 35.6625 56.4562C34.1958 56.3168 32.7233 56.248 31.25 56.25C6.25 56.25 0 75 0 81.25C0 85.4187 2.08125 87.5 6.25 87.5H32.6C31.6735 85.5488 31.2114 83.4096 31.25 81.25C31.25 74.9375 33.6063 68.4875 38.0625 63.1C39.5812 61.2625 41.35 59.5437 43.35 58ZM30.75 62.5C27.051 68.0579 25.0527 74.5739 25 81.25H6.25C6.25 79.625 7.275 74.8125 11 70.475C14.4062 66.5 20.325 62.625 30.75 62.5063V62.5ZM9.375 34.375C9.375 29.4022 11.3504 24.6331 14.8667 21.1167C18.3831 17.6004 23.1522 15.625 28.125 15.625C33.0978 15.625 37.8669 17.6004 41.3833 21.1167C44.8996 24.6331 46.875 29.4022 46.875 34.375C46.875 39.3478 44.8996 44.1169 41.3833 47.6333C37.8669 51.1496 33.0978 53.125 28.125 53.125C23.1522 53.125 18.3831 51.1496 14.8667 47.6333C11.3504 44.1169 9.375 39.3478 9.375 34.375ZM28.125 21.875C24.8098 21.875 21.6304 23.192 19.2862 25.5362C16.942 27.8804 15.625 31.0598 15.625 34.375C15.625 37.6902 16.942 40.8696 19.2862 43.2138C21.6304 45.558 24.8098 46.875 28.125 46.875C31.4402 46.875 34.6196 45.558 36.9638 43.2138C39.308 40.8696 40.625 37.6902 40.625 34.375C40.625 31.0598 39.308 27.8804 36.9638 25.5362C34.6196 23.192 31.4402 21.875 28.125 21.875Z" fill="black"/>
</svg>
