<svg width="65" height="64" viewBox="0 0 65 64" fill="none" xmlns="http://www.w3.org/2000/svg">
<path d="M32.0669 11.52C23.6169 11.52 15.6819 12.16 11.4569 13.055C8.64188 13.695 6.20688 15.615 5.69687 18.56C5.18688 21.63 4.67188 26.24 4.67188 32C4.67188 37.76 5.18188 42.24 5.82188 45.44C6.33687 48.255 8.76688 50.305 11.5819 50.945C16.0669 51.84 23.7419 52.48 32.1919 52.48C40.6419 52.48 48.3169 51.84 52.7969 50.945C55.6169 50.305 58.0469 48.385 58.5569 45.44C59.0719 42.24 59.7119 37.635 59.8369 31.875C59.8369 26.115 59.1969 21.505 58.5569 18.305C58.0469 15.49 55.6169 13.44 52.7969 12.8C48.3169 12.16 40.5119 11.52 32.0669 11.52ZM32.0669 14.08C41.2819 14.08 48.7019 14.845 52.2869 15.485C54.2069 16 55.7419 17.28 55.9969 18.945C56.7669 23.04 57.2769 27.395 57.2769 31.875C57.1519 37.375 56.5119 41.855 55.9969 45.055C55.6169 47.485 53.0569 48.255 52.2869 48.515C47.6769 49.41 39.9969 50.045 32.3169 50.045C24.6369 50.045 16.8319 49.535 12.3519 48.515C10.4319 48 8.89687 46.72 8.64188 45.055C7.61687 41.47 7.23188 36.735 7.23188 32C7.23188 26.11 7.74688 21.76 8.25687 19.075C8.64188 16.64 11.3269 15.87 11.9669 15.615C16.1919 14.72 24.0019 14.08 32.0669 14.08ZM25.1519 21.76V42.24L43.0719 32L25.1519 21.76ZM27.7119 26.115L37.9519 32L27.7119 37.885V26.115Z" fill="#0A2BD7"/>
</svg>
